<?xml version="1.0" encoding="UTF-8" standalone="no"?>
<!-- Created with Inkscape (http://www.inkscape.org/) -->

<svg
   xmlns:dc="http://purl.org/dc/elements/1.1/"
   xmlns:cc="http://creativecommons.org/ns#"
   xmlns:rdf="http://www.w3.org/1999/02/22-rdf-syntax-ns#"
   xmlns:svg="http://www.w3.org/2000/svg"
   xmlns="http://www.w3.org/2000/svg"
   xmlns:sodipodi="http://sodipodi.sourceforge.net/DTD/sodipodi-0.dtd"
   xmlns:inkscape="http://www.inkscape.org/namespaces/inkscape"
   width="744.09448819"
   height="1052.3622047"
   id="svg2"
   version="1.1"
   inkscape:version="0.48.4 r9939"
   sodipodi:docname="Sprouts.svg"
   inkscape:export-filename="D:\WorkingCopy\Mine\sprouts\Graphics\Sprouts.png"
   inkscape:export-xdpi="36.169998"
   inkscape:export-ydpi="36.169998">
  <defs
     id="defs4" />
  <sodipodi:namedview
     id="base"
     pagecolor="#ffffff"
     bordercolor="#666666"
     borderopacity="1.0"
     inkscape:pageopacity="0.0"
     inkscape:pageshadow="2"
     inkscape:zoom="0.49497475"
     inkscape:cx="800.60568"
     inkscape:cy="380.68152"
     inkscape:document-units="px"
     inkscape:current-layer="layer1"
     showgrid="false"
     inkscape:window-width="1280"
     inkscape:window-height="975"
     inkscape:window-x="1272"
     inkscape:window-y="173"
     inkscape:window-maximized="1" />
  <metadata
     id="metadata7">
    <rdf:RDF>
      <cc:Work
         rdf:about="">
        <dc:format>image/svg+xml</dc:format>
        <dc:type
           rdf:resource="http://purl.org/dc/dcmitype/StillImage" />
        <dc:title></dc:title>
      </cc:Work>
    </rdf:RDF>
  </metadata>
  <g
     inkscape:label="Layer 1"
     inkscape:groupmode="layer"
     id="layer1">
    <g
       id="g3770"
       transform="matrix(0.71953834,0,0,0.71953834,17.627904,104.80491)">
      <path
         sodipodi:nodetypes="zzzzzzzzzzzzzzzzz"
         inkscape:connector-curvature="0"
         id="path2998"
         d="m 162.63456,376.57013 c 13.14885,2.75934 37.62528,11.1098 51.51778,20.20305 13.8925,9.09325 22.43972,17.04496 31.31473,31.31473 8.87501,14.26977 16.46268,37.9435 18.18275,53.53808 1.72007,15.59458 -4.93743,29.02853 -4.04061,37.37565 0.89682,8.34712 5.40065,3.60137 4.04061,12.12183 -1.36004,8.52046 -15.93106,25.68821 -23.23351,31.31473 -7.30245,5.62652 -9.36746,4.78828 -15.15229,6.06091 -5.78483,1.27263 -12.57338,-0.1399 -19.1929,1.01016 -6.61952,1.15006 -4.44399,5.51064 -20.20305,6.06091 -15.75906,0.55027 -54.50832,-8.86069 -71.72083,-16.16244 -17.212514,-7.30175 -23.297104,-10.53551 -32.324884,-21.2132 -9.02778,-10.67769 -15.5159,-24.96208 -18.18275,-41.41626 -2.66685,-16.45418 2.06216,-39.3719 5.05077,-54.54823 2.98861,-15.17633 0.15573,-23.12964 11.11167,-36.3655 10.95594,-13.23586 42.892254,-26.98569 57.578704,-30.30457 14.68645,-3.31888 12.10496,-1.74919 25.25381,1.01015 z"
         style="fill:#8ce01f;fill-opacity:1;stroke:none" />
      <path
         sodipodi:nodetypes="cccccccccccccccccccccccc"
         inkscape:connector-curvature="0"
         id="path3768"
         d="m 265.64982,530.09301 -6.06092,15.15229 -23.23351,22.22335 -24.24366,3.03046 5.05076,-20.20305 -63.1968,-27.24825 -64.689314,-70.87684 30.327834,16.3942 3.67116,-49.62058 4.98502,56.96001 16.0599,12.9555 4.42863,-88.12222 1.53694,62.51452 9.13712,37.79102 7.68471,6.19924 4.63431,-66.08883 4.54298,63.80264 9.37971,6.80005 58.77192,14.29588 -48.89771,-41.40644 c 14.85641,-0.85896 29.50133,-2.03515 28.56204,-26.58766 l 33.6389,58.43088 5.06436,-35.97337 z"
         style="fill:#e0f498;fill-opacity:1;stroke:none" />
    </g>
    <flowRoot
       xml:space="preserve"
       id="flowRoot3774"
       style="font-size:72px;font-style:normal;font-weight:normal;line-height:125%;letter-spacing:0px;word-spacing:0px;fill:#008000;fill-opacity:1;stroke:none;font-family:Sans"
       transform="matrix(1.5661192,0,0,1.5661192,-234.24312,-270.09806)"><flowRegion
         id="flowRegion3776"><rect
           id="rect3778"
           width="378.80722"
           height="131.31982"
           x="295.9747"
           y="413.94577"
           style="fill:#008000;fill-opacity:1" /></flowRegion><flowPara
         id="flowPara3780"
         style="font-size:72px;font-style:normal;font-variant:normal;font-weight:bold;font-stretch:normal;text-align:start;line-height:125%;writing-mode:lr-tb;text-anchor:start;fill:#008000;fill-opacity:1;font-family:Berlin Sans FB Demi;-inkscape-font-specification:Berlin Sans FB Demi Bold">SPROUTS</flowPara></flowRoot>  </g>
</svg>
